<?xml version="1.0" encoding="UTF-8"?>
<svg version="1.1" viewBox="0 0 900 900" width="1280" height="1280" xmlns="http://www.w3.org/2000/svg">
<path transform="translate(442,100)" d="m0 0h15l14 4 16 8 9 4 12 5 24 12 23 11 28 13 16 8 22 10 20 10 7 3 12 5 10 6 9 4 17 8 14 7 9 4 17 8 16 8 25 12 20 9 14 7 10 7 4 6 3 9v262l-2 14-5 13-4 6-7 6-6 4-16 8-19 10-10 4-24 11-16 8-11 5h-7l-3-5-1-23-9 1-32 16-2 2-1 5v63l-4 8-8 6-22 10-16 8-9 5-6 1-4-3-1-4-1-53-3-7-3-2h-7l-5 3-2 7-1 69-5 8-16 8-9 3-9 6-10 4h-7l-4-5-1-62-2-11-5-5h-6l-5 5-2 9-1 10-1 72-4 5-16 7-4 1h-7l-14-4-10-6-2-4-1-75-3-16-4-4h-7l-4 4-2 7-1 9-1 59-3 4h-8l-8-4-10-6-25-11-4-5-1-3-1-65-2-10-5-4-9 1-3 3-1 3-1 16v35l-2 9-1 1h-7l-16-8-34-16-8-6-2-4-2-71-4-4-28-13-4-2h-7l-1 2v15l-2 10-1 1h-7l-16-8-25-12-24-11-19-10-17-9-6-5-7-11-3-7-1-5-1-180v-85l2-13 6-11 8-6 18-8 16-8 27-13 28-13 33-16 22-10 16-8 17-8 16-8 21-10 28-13 19-9 16-8 20-9 24-12 22-10zm146 158-4 5-2 9v39l3 3 9-1 14-11 12-9 4-5 1-2v-6l-4-6-10-7-16-9zm-283 1-22 13-6 5-2 4 1 6 5 6 11 8 10 8 5 3h7l2-3v-21l-1-19-3-8-2-2zm423 0-18 13-10 8-2 3v9l9 8 13 9 8 5h5l4-5 1-4 1-15v-19l-2-10-2-2zm-563 2-2 2-2 12 1 18 2 16 2 2h7l13-10 10-6 3-3v-9l-7-7-6-4-12-9-3-2zm479 35-14 3-16 8-13 11-10 11-9 14-8 17-5 17-3 12-2 19v19l2 18 6 24 6 16 9 17 10 14 11 12 10 8 11 7 14 5 7 2h24l17-5 14-9 11-9 9-11 9-14 8-17 7-26 2-16v-27l-3-22-6-21-5-13-9-17-8-11-14-15-11-9-16-8-9-3-6-1zm-408 2-16 4-15 8-11 9-10 10-10 13-8 14-7 17-6 21-3 21v28l3 21 7 23 8 16 7 11 11 13 10 8 13 8 12 4 5 1h23l15-5 10-5 9-7 12-10 11-14 9-15 8-18 5-18 4-21 1-11v-14l-2-15-4-21-5-15-8-17-9-13-12-13-11-8-14-7-14-3zm-107 95-6 3-18 14-8 7-1 1v8l6 7 17 13 8 6 6 1 5-3 1-2v-48l-3-5-3-2zm636 3-4 4-1 3v38l2 8 4 3h6l13-10 14-11 4-5v-7l-7-8-18-13-3-2zm-420 1-3 3-1 7v38l2 9 3 3h6l15-10 9-7 5-4 3-5v-8l-6-7-11-8-10-8-4-3zm201 0-15 12-13 10-3 4v8l4 6 13 10 11 7 4 3h6l3-4 2-10v-33l-2-10-2-3zm-379 136-3 5v27l1 18 2 5 2 2h7l11-7 14-12 5-5v-7l-8-8-15-11-9-7zm558 0-17 13-10 8-5 5v7l4 5 14 11 11 8h8l3-4 1-3 1-20v-24l-2-5-1-1zm-418 1-16 9-15 10-4 5v6l6 7 14 10 14 11 7 1 4-4 1-8v-13l-1-21-2-9-4-4zm281 0-4 3-2 9-1 10v25l2 10 1 1h9l14-11 13-10 5-4 2-3v-6l-4-5-22-14-10-5zm-143 39-23 11-10 7-7 11-1 2v13l5 6 8 4h16l11-4h11l11 4h16l7-3 6-6 1-3v-9l-5-10-7-8-19-10-11-5z" fill="#470079"/>
</svg>
