<?xml version="1.0" encoding="UTF-8"?>
<svg version="1.1" xmlns="http://www.w3.org/2000/svg" width="758" height="702">
<path d="M0 0 C250.14 0 500.28 0 758 0 C758 231.66 758 463.32 758 702 C507.86 702 257.72 702 0 702 C0 470.34 0 238.68 0 0 Z " fill="#470079" transform="translate(0,0)"/>
<path d="M0 0 C122.1 0 244.2 0 370 0 C367.05010243 1.47494879 364.45809468 2.57772657 361.375 3.625 C341.52994195 10.7723626 322.51746248 20.66688587 303.7121582 30.15234375 C296.92777489 33.56332024 290.05311302 36.77693234 283.171875 39.98681641 C279.46642101 41.71541736 275.76378278 43.44998752 272.0625 45.1875 C271.34400879 45.52450928 270.62551758 45.86151855 269.88525391 46.20874023 C266.20674751 47.94002889 262.55714465 49.71030725 258.9375 51.5625 C254.73736684 53.69476521 250.44775465 55.5716677 246.125 57.4375 C241.51712761 59.42746816 236.970201 61.46215377 232.5 63.75 C226.50178629 66.8146611 220.38164599 69.58848918 214.25 72.375 C206.84040739 75.74802772 199.48422173 79.18047227 192.22753906 82.87060547 C185.03840275 86.51660332 177.75867044 89.97276681 170.48071289 93.43725586 C164.77140986 96.16256068 159.09620836 98.94535157 153.4453125 101.7890625 C144.1549573 106.45745231 134.77004561 110.92200548 125.375 115.375 C124.059552 115.99962631 124.059552 115.99962631 122.7175293 116.63687134 C111.82561436 121.80790195 100.91145773 126.91249742 89.91113281 131.84936523 C84.27910554 134.38647118 78.75342653 137.08592416 73.25195312 139.89331055 C67.24566071 142.93365447 61.12869338 145.71643298 55 148.5 C46.17415841 152.51205871 37.45624278 156.66980748 28.82470703 161.08251953 C26.92466177 162.0378808 25.01044385 162.95781809 23.08984375 163.87109375 C22.45449707 164.17692383 21.81915039 164.48275391 21.16455078 164.79785156 C19.44205675 165.62526631 17.7153312 166.44385608 15.98828125 167.26171875 C11.12433522 170.09107297 7.89337557 173.62762678 5.25 178.5625 C4.84265625 179.30628906 4.4353125 180.05007812 4.015625 180.81640625 C2.31006582 184.48335848 1.87465223 187.71735966 1.86857224 191.74341774 C1.86473109 192.69966533 1.86088995 193.65591293 1.8569324 194.64113772 C1.85779888 195.68878499 1.85866537 196.73643226 1.85955811 197.81582642 C1.85658698 198.9310818 1.85361586 200.04633719 1.8505547 201.1953882 C1.8418577 204.9461843 1.8403586 208.69694851 1.83886719 212.44775391 C1.83423968 215.13159333 1.82923573 217.81542985 1.82382202 220.49926758 C1.81024274 227.80112051 1.80421436 235.10296795 1.79981136 242.40483141 C1.79704776 246.96588666 1.79281014 251.5269398 1.78830719 256.08799362 C1.77611412 268.72062611 1.76581549 281.35325691 1.7624321 293.98589516 C1.76221253 294.79436453 1.76199297 295.60283391 1.76176675 296.43580236 C1.76154847 297.24619112 1.76133019 298.05657987 1.7611053 298.89152586 C1.76066184 300.53364094 1.76021527 302.17575602 1.75976562 303.81787109 C1.75943348 305.0396861 1.75943348 305.0396861 1.75909463 306.28618424 C1.75514871 319.47738034 1.73770119 332.66852112 1.7144061 345.85969587 C1.69067263 359.40872167 1.67822931 372.95771975 1.67706418 386.50676668 C1.67614844 394.1116343 1.67042182 401.71642988 1.65224457 409.32127762 C1.63681649 415.79873215 1.63173897 422.27609239 1.63998267 428.75356181 C1.6438799 432.05609443 1.64136117 435.35839835 1.62892532 438.66091537 C1.61621108 442.24819665 1.62208044 445.83499362 1.63250732 449.42227173 C1.62445092 450.45653467 1.61639452 451.49079761 1.60809398 452.55640185 C1.68998327 464.63373101 5.53444945 474.50042638 13.3125 483.75 C25.90034813 494.28866355 41.58776063 500.8343006 56.3046875 507.8125 C63.34361544 511.1535875 70.35235114 514.55562607 77.36022949 517.96118164 C79.49217039 518.99619887 81.62527273 520.02878147 83.75878906 521.06054688 C90.17994868 524.16693652 96.59242457 527.2868557 102.9765625 530.46875 C104.02521484 530.98566406 105.07386719 531.50257813 106.15429688 532.03515625 C108.06997416 532.97977029 109.98058814 533.93475745 111.88476562 534.90234375 C116.8839018 537.35043332 120.42259251 538.54413732 126 538 C127.25156531 535.49686937 127.17439171 533.67769984 127.24609375 530.87890625 C127.29540039 529.35233398 127.29540039 529.35233398 127.34570312 527.79492188 C127.40678715 525.64398456 127.46409315 523.49293656 127.51757812 521.34179688 C127.55173828 520.32279297 127.58589844 519.30378906 127.62109375 518.25390625 C127.65867798 516.85120483 127.65867798 516.85120483 127.69702148 515.42016602 C128 513 128 513 130 510 C136.68212509 508.92166764 141.82113546 511.7862092 147.75 514.625 C149.21445557 515.31070068 149.21445557 515.31070068 150.70849609 516.01025391 C170.02476859 525.12815378 170.02476859 525.12815378 174 530 C174.4853363 533.04669189 174.4853363 533.04669189 174.46655273 536.66113281 C174.46885895 537.32186295 174.47116516 537.98259308 174.47354126 538.66334534 C174.47616629 540.09454635 174.46974761 541.52578641 174.45528984 542.95691681 C174.43335166 545.22818847 174.4371368 547.49813178 174.44776917 549.76947021 C174.46941329 555.41244359 174.4521565 561.05512181 174.42626953 566.69805908 C174.40479259 571.46438792 174.40303311 576.22986236 174.42918587 580.99617767 C174.43351169 583.22337589 174.40897012 585.44905863 174.38365173 587.67608643 C174.37571255 595.15511593 174.56568678 601.37899281 180 607 C182.89087289 609.24937317 182.89087289 609.24937317 186.3125 610.8125 C186.94422119 611.12960937 187.57594238 611.44671875 188.22680664 611.7734375 C195.41683918 615.3283261 202.75032138 618.61176079 210.0612793 621.90869141 C216.82604298 624.96298569 223.4898019 628.15274839 230.00366211 631.71484375 C233.82004238 633.72050163 236.6936675 634.53049024 241 634 C244.3267608 630.6732392 244.12613408 627.21567134 244.15771484 622.66821289 C244.16797699 621.60353287 244.17823914 620.53885284 244.18881226 619.44190979 C244.19611359 618.29705612 244.20341492 617.15220245 244.2109375 615.97265625 C244.23899863 613.54751921 244.26766304 611.12238908 244.296875 608.69726562 C244.33818433 604.87443175 244.37507409 601.05172814 244.40136719 597.22875977 C244.42894385 593.53895444 244.47480747 589.84973608 244.5234375 586.16015625 C244.52669037 585.01732681 244.52994324 583.87449738 244.53329468 582.69703674 C244.54986115 581.62920456 244.56642761 580.56137238 244.58349609 579.46118164 C244.59562637 578.05697716 244.59562637 578.05697716 244.60800171 576.62440491 C245.19756773 572.67729599 247.01086121 570.02446518 249.75 567.1875 C253.08187066 565.42901271 255.28346973 565.48737513 259 566 C263.42669316 568.58919788 264.63775604 569.81982547 266.15087891 574.74951172 C267.34633322 580.7799281 267.28054083 586.83278228 267.27439499 592.96054459 C267.27341763 595.11408849 267.28650986 597.2671496 267.30337524 599.42062378 C267.34930261 605.53640151 267.37426025 611.65212165 267.38085938 617.76806641 C267.38588928 621.5263725 267.41020008 625.28416263 267.44618607 629.04229355 C267.45593727 630.4655128 267.4583417 631.88880337 267.45301437 633.31204605 C267.22507834 643.93937735 267.22507834 643.93937735 272 653 C274.49843177 654.77299093 274.49843177 654.77299093 277.40234375 655.80859375 C278.45196289 656.24179932 279.50158203 656.67500488 280.58300781 657.12133789 C281.68999023 657.55567139 282.79697266 657.99000488 283.9375 658.4375 C292.285604 661.89079653 300.04754123 665.403446 307.546875 670.44140625 C312.83329771 673.8001366 316.8484695 674.50422381 323 674 C325.2550085 670.61748725 325.25817181 669.43136112 325.28710938 665.46557617 C325.30052368 664.32976608 325.31393799 663.19395599 325.32775879 662.02372742 C325.33303589 660.79257706 325.33831299 659.5614267 325.34375 658.29296875 C325.3583728 657.02085037 325.37299561 655.74873199 325.38806152 654.43806458 C325.43465132 650.3545719 325.46909072 646.27113261 325.5 642.1875 C325.53093251 638.1431645 325.56447632 634.09894316 325.61193848 630.05476379 C325.64062916 627.53815395 325.66125493 625.02143386 325.67224121 622.50468445 C325.94595266 598.62161428 325.94595266 598.62161428 332 592 C335.13871188 590.43064406 337.53855822 590.64798897 341 591 C345.56032455 594.344238 346.89114462 597.5481277 348 603 C348.75903484 608.2983134 349.15286906 613.46606081 349.17358398 618.82128906 C349.180271 619.55730347 349.18695801 620.29331787 349.19384766 621.05163574 C349.20778961 622.63389762 349.21971711 624.21617833 349.22979546 625.79846954 C349.24634626 628.30384825 349.269583 630.80908536 349.29469299 633.31439209 C349.36512136 640.43185277 349.42575546 647.54936628 349.47680664 654.66699219 C349.50859055 659.03348815 349.54984642 663.39981097 349.59700203 667.76616669 C349.61300385 669.42631683 349.62533382 671.08650662 349.63390923 672.74671173 C349.64606042 675.06341708 349.67020364 677.37971371 349.69702148 679.69628906 C349.70732895 681.01340881 349.71763641 682.33052856 349.72825623 683.68756104 C349.98091731 686.76739025 350.30754108 688.46260815 352 691 C359.87731618 697.33130085 372.05818945 700.68717085 382 700 C389.95997975 697.89109894 397.33060506 694.83858064 404 690 C405.45261554 687.09476892 405.14889069 684.53944718 405.17358398 681.29394531 C405.180271 680.60413071 405.18695801 679.9143161 405.19384766 679.20359802 C405.20791604 677.70146716 405.21980438 676.1993147 405.22979546 674.69715118 C405.24623828 672.30711752 405.26948658 669.91723906 405.29469299 667.52728271 C405.36531266 660.7300193 405.42505821 653.9326864 405.47680664 647.13525391 C405.50894608 642.9766302 405.55032285 638.81817548 405.59700203 634.65969086 C405.61283867 633.08595638 405.62524276 631.51218293 405.63390923 629.93839264 C405.80339013 599.55499676 405.80339013 599.55499676 412.8125 592.0625 C415.8103891 590.60638244 417.70159091 590.5287987 421 591 C424.94594402 593.42137474 426.75992104 595.55638374 428 600 C428.74787709 604.5411741 429.13034348 608.91472047 429.15771484 613.5144043 C429.16797699 614.76227219 429.17823914 616.01014008 429.18881226 617.29582214 C429.19225018 617.95231436 429.1956881 618.60880657 429.19923019 619.28519249 C429.21113059 621.35784938 429.23060517 623.43030814 429.25234985 625.50288391 C429.31363124 631.39060907 429.36811733 637.27830367 429.40136719 643.16625977 C429.4223119 646.77957018 429.45759526 650.39250088 429.50212479 654.00559425 C429.51626703 655.37824861 429.52500323 656.75096993 429.52817917 658.12369347 C429.53308838 660.04047115 429.5578572 661.95716681 429.58349609 663.8737793 C429.59562637 665.50756783 429.59562637 665.50756783 429.60800171 667.17436218 C430.04910421 670.35395741 430.73959483 671.74681531 433 674 C440.40349117 675.4176898 448.11838566 671.558025 454.2109375 667.54296875 C454.88382812 667.05441406 455.55671875 666.56585937 456.25 666.0625 C460.86743102 662.77279182 465.83008021 661.00410889 471.15332031 659.17993164 C480.67779036 655.87743605 480.67779036 655.87743605 487.19067383 648.44992065 C488.88126279 643.33231918 488.54617924 637.84996273 488.51642036 632.51013184 C488.50370527 630.21370168 488.51515588 627.91845861 488.53245544 625.62207031 C488.559075 621.57398382 488.56475427 617.52619189 488.56335449 613.47802734 C488.56112067 606.99995333 488.5754025 600.52224373 488.61894035 594.04431152 C488.62872647 591.79138721 488.62008985 589.53904456 488.61024475 587.28613281 C488.61639314 585.89387642 488.62330626 584.50162313 488.63110352 583.109375 C488.63014175 581.90249023 488.62917999 580.69560547 488.62818909 579.45214844 C489.13933985 574.70627291 490.49549981 570.7273891 493.6875 567.0625 C497.11887368 565.4859229 500.33883325 565.34492046 504 566 C508.08711402 568.39895823 509.54755066 570.57634931 511 575 C511.26501465 577.61767578 511.26501465 577.61767578 511.28710938 580.4453125 C511.30052368 581.50991699 511.31393799 582.57452148 511.32775879 583.67138672 C511.33567444 585.38092529 511.33567444 585.38092529 511.34375 587.125 C511.3583728 588.30465332 511.37299561 589.48430664 511.38806152 590.69970703 C511.45026166 595.74175351 511.48991257 600.78392193 511.53173828 605.82617188 C511.56548869 609.50924435 511.61059682 613.19205897 511.65625 616.875 C511.66416565 618.58453857 511.66416565 618.58453857 511.67224121 620.32861328 C511.68565552 621.39321777 511.69906982 622.45782227 511.71289062 623.5546875 C511.72382751 624.95436768 511.72382751 624.95436768 511.73498535 626.38232422 C512.02643938 629.26115431 512.71484256 631.41291446 514 634 C517.1785743 635.4867525 518.22633372 634.92953761 521.7265625 633.83984375 C526.1118642 632.05155451 530.22830398 629.83944603 534.375 627.5625 C543.44862675 622.65955459 552.75399308 618.35599253 562.19091797 614.19946289 C572.98433907 609.44707452 572.98433907 609.44707452 579.39380264 599.89693069 C580.34385297 596.92400513 580.36352819 594.15049239 580.35302734 591.04248047 C580.35626762 590.05813019 580.35626762 590.05813019 580.35957336 589.05389404 C580.36263929 587.64239313 580.35911727 586.23086504 580.34955978 584.81939316 C580.33572255 582.58243875 580.34231462 580.34636153 580.35440063 578.10940552 C580.38523453 571.75467928 580.38045137 565.40016467 580.36035156 559.04541016 C580.34942588 555.14675204 580.36263355 551.24875878 580.39024734 547.35019302 C580.39567829 545.86947161 580.39164835 544.38868328 580.37784958 542.9080162 C580.35876587 540.83751658 580.37021471 538.76919343 580.38818359 536.69873047 C580.38579681 535.52293427 580.38341003 534.34713806 580.38095093 533.13571167 C581.18600913 529.05779519 582.83683926 527.60811342 586 525 C588.96679687 523.37841797 588.96679687 523.37841797 592.21875 521.9921875 C593.39824219 521.48042969 594.57773437 520.96867188 595.79296875 520.44140625 C597.02838977 519.91866526 598.26406933 519.39653487 599.5 518.875 C601.92933588 517.83585843 604.35537619 516.78942264 606.78125 515.7421875 C608.3909668 515.05938721 608.3909668 515.05938721 610.03320312 514.36279297 C613.01212719 513.07035475 613.01212719 513.07035475 615.65429688 511.34423828 C618.85821454 509.50818804 621.37541769 509.72118598 625 510 C626.66410868 511.66410868 626.18743471 513.70136889 626.24609375 515.98828125 C626.27896484 517.00470703 626.31183594 518.02113281 626.34570312 519.06835938 C626.40656667 521.21930294 626.46389795 523.37034955 626.51757812 525.52148438 C626.56881836 527.05192383 626.56881836 527.05192383 626.62109375 528.61328125 C626.6461499 529.54954346 626.67120605 530.48580566 626.69702148 531.45043945 C627.00761693 534.06409635 627.67688161 535.74583507 629 538 C634.50264181 538.36357989 638.08381476 537.3739629 642.8125 534.75 C644.21129833 534.01265552 645.61252963 533.27991569 647.015625 532.55078125 C647.79486328 532.14553223 648.57410156 531.7402832 649.37695312 531.32275391 C654.53847243 528.71989542 659.80695358 526.34310983 665.0625 523.9375 C667.30862364 522.90761728 669.55471803 521.87767074 671.80078125 520.84765625 C672.86377441 520.36055176 673.92676758 519.87344727 675.02197266 519.37158203 C677.61852766 518.17569369 680.20818789 516.96716638 682.79296875 515.74609375 C683.47673584 515.42326416 684.16050293 515.10043457 684.86499023 514.76782227 C686.59341768 513.94916417 688.32022842 513.127095 690.046875 512.3046875 C693 511 693 511 695.69140625 510.1796875 C700.77422168 508.36739676 705.42617961 505.77377681 710.1875 503.25 C711.16525391 502.73695313 712.14300781 502.22390625 713.15039062 501.6953125 C726.10403128 495.09051589 726.10403128 495.09051589 738.4375 487.4375 C739.21996094 486.89996094 740.00242187 486.36242187 740.80859375 485.80859375 C749.34862754 478.76040187 753.41121826 466.21789234 754.53767681 455.48125362 C755.06388905 449.95527603 755.14821172 444.47266054 755.14717102 438.92494202 C755.15268605 437.3189314 755.15268605 437.3189314 755.1583125 435.68047613 C755.16926763 432.11648756 755.1731791 428.55252821 755.17700195 424.98852539 C755.18327248 422.42364918 755.1899198 419.85877387 755.19691467 417.29389954 C755.21606825 409.61979377 755.22672799 401.94569316 755.23564246 394.27156964 C755.24003807 390.65033408 755.24540118 387.02909995 755.25063133 383.40786552 C755.26762617 371.36089539 755.28212164 359.31392611 755.28938007 347.26694584 C755.29128966 344.14842286 755.29321005 341.0298999 755.29516602 337.91137695 C755.29564976 337.13637631 755.2961335 336.36137567 755.2966319 335.56289016 C755.30493778 322.99998419 755.3302919 310.43717323 755.36274669 297.87430877 C755.39584998 284.9545054 755.41383139 272.03475033 755.41702431 259.11490434 C755.41918533 251.86944599 755.42787515 244.62412665 755.45348549 237.37870979 C755.47751544 230.56520948 755.48099785 223.75196285 755.47072411 216.93842888 C755.47022883 214.44195601 755.47654681 211.94547079 755.49028015 209.44903564 C755.50801709 206.03307287 755.50088325 202.61800573 755.48774719 199.20204163 C755.49871644 198.22147563 755.50968568 197.24090963 755.52098733 196.2306295 C755.4462822 188.14812924 753.45354591 181.02424859 749.23046875 174.09765625 C746.21275342 171.25962975 742.94946396 169.38696712 739.3125 167.4375 C738.64283203 167.06431641 737.97316406 166.69113281 737.28320312 166.30664062 C733.15033979 164.03692103 728.94818721 162.04144358 724.62719727 160.15893555 C719.47329646 157.88539525 714.37750077 155.48262176 709.27270508 153.10131836 C707.33441534 152.19771661 705.39477942 151.29705119 703.45507812 150.39648438 C694.892979 146.41074286 686.42915589 142.25982391 678 138 C676.56555388 137.28165335 675.13074241 136.56403501 673.6953125 135.84765625 C672.51710938 135.25855469 671.33890625 134.66945312 670.125 134.0625 C669.47136475 133.73604492 668.81772949 133.40958984 668.14428711 133.07324219 C664.67510772 131.34010092 661.20848949 129.60212729 657.74609375 127.85546875 C657.04532715 127.50282959 656.34456055 127.15019043 655.62255859 126.78686523 C654.30301538 126.12271496 652.98425499 125.45700565 651.66650391 124.78930664 C645.4531586 121.66623561 639.09016637 118.90434822 632.7109375 116.140625 C624.64619476 112.63477492 616.78209381 108.94218208 609.06323242 104.72631836 C605.14603155 102.59029208 601.20805878 100.67303817 597.10546875 98.92578125 C594.692079 97.86460617 592.35145519 96.69193211 590 95.5 C586.25165898 93.60573884 582.47181941 91.85095224 578.625 90.16796875 C575.16903651 88.63027071 571.74046605 87.03646602 568.3125 85.4375 C567.68255127 85.14439941 567.05260254 84.85129883 566.40356445 84.54931641 C562.57112388 82.75858847 558.78329504 80.89164752 555 79 C553.19109192 78.15889818 551.37832547 77.32606207 549.5625 76.5 C537.30444742 70.86379462 525.16374549 64.97367812 513.01171875 59.11328125 C504.1088139 54.82334011 495.20102602 50.54707244 486.2421875 46.375 C485.58241409 46.0677449 484.92264069 45.76048981 484.24287415 45.44392395 C481.03923297 43.95320063 477.83403675 42.46592846 474.62670898 40.9831543 C464.16238566 36.12857131 453.87199507 30.97054899 443.58959961 25.74389648 C438.0084149 22.91812082 432.46054897 20.27933241 426.609375 18.05078125 C423.24496432 16.6959512 419.96874504 15.16729259 416.6875 13.625 C416.04635254 13.32489014 415.40520508 13.02478027 414.74462891 12.71557617 C411.67419736 11.27387216 408.6168038 9.81232988 405.5703125 8.3203125 C398.50535791 4.91490273 391.68624284 2.57879583 384 1 C384 0.67 384 0.34 384 0 C507.42 0 630.84 0 758 0 C758 231.66 758 463.32 758 702 C507.86 702 257.72 702 0 702 C0 470.34 0 238.68 0 0 Z " fill="#FEFEFE" transform="translate(0,0)"/>
<path d="M0 0 C1.95676459 1.12506843 1.95676459 1.12506843 4.1875 2.0546875 C12.26497497 5.64036149 18.46877406 11.17804578 24.9375 17.07421875 C25.61941406 17.69554687 26.30132813 18.316875 27.00390625 18.95703125 C35.30348907 26.92925234 42.09767045 36.19576008 47.9375 46.07421875 C48.46214844 46.95851562 48.98679687 47.8428125 49.52734375 48.75390625 C56.11254703 60.31571353 63.63668095 76.40134681 62.9375 90.07421875 C63.5975 90.07421875 64.2575 90.07421875 64.9375 90.07421875 C69.55867769 114.50044369 69.55867769 139.64799381 64.9375 164.07421875 C64.2775 164.07421875 63.6175 164.07421875 62.9375 164.07421875 C62.875625 165.24984375 62.81375 166.42546875 62.75 167.63671875 C59.91874133 192.12328019 43.51883166 216.54569187 24.9375 232.07421875 C16.30217081 238.82318962 6.2767108 246.07421875 -5.0625 246.07421875 C-5.0625 246.73421875 -5.0625 247.39421875 -5.0625 248.07421875 C-15.2925 248.07421875 -25.5225 248.07421875 -36.0625 248.07421875 C-36.0625 247.41421875 -36.0625 246.75421875 -36.0625 246.07421875 C-36.949375 246.01234375 -37.83625 245.95046875 -38.75 245.88671875 C-48.42423253 244.47384909 -57.37762318 239.95879226 -65.0625 234.07421875 C-65.92359375 233.42710937 -66.7846875 232.78 -67.671875 232.11328125 C-84.91404698 218.62152521 -95.84828535 201.66247927 -105.0625 182.07421875 C-105.65998047 180.89859375 -105.65998047 180.89859375 -106.26953125 179.69921875 C-109.74981871 172.59998696 -111.50667526 164.80960667 -113.50292969 157.19384766 C-113.97829026 155.39320173 -114.47513651 153.59824971 -114.9765625 151.8046875 C-120.91800376 129.8693665 -122.56047465 101.78031203 -115.0625 80.07421875 C-114.45289452 77.80545367 -113.88392845 75.52810944 -113.31323242 73.24926758 C-111.45406808 65.85830952 -109.58067783 58.8648604 -106.0625 52.07421875 C-105.43142114 50.78361218 -104.80276605 49.4918192 -104.17578125 48.19921875 C-103.47240038 46.76120654 -102.76796205 45.32371111 -102.0625 43.88671875 C-101.73016357 43.20843018 -101.39782715 42.5301416 -101.05541992 41.83129883 C-90.37163175 20.44533387 -72.57144238 4.48480981 -50.34765625 -3.95703125 C-35.04388032 -8.69966482 -14.12627952 -7.91660248 0 0 Z " fill="#FEFEFE" transform="translate(611.0625,201.92578125)"/>
<path d="M0 0 C17.03969302 13.26030989 28.05879552 29.71162145 36.046875 49.58544922 C36.43488281 50.43107422 36.82289063 51.27669922 37.22265625 52.14794922 C39.69925886 57.65576042 41.02182042 63.33124961 42.296875 69.21044922 C42.4724292 70.01071533 42.6479834 70.81098145 42.82885742 71.63549805 C43.86852243 76.71731344 44.21300703 81.39975661 44.046875 86.58544922 C44.706875 86.58544922 45.366875 86.58544922 46.046875 86.58544922 C47.65530959 99.88375661 47.48260371 113.2793206 46.046875 126.58544922 C45.386875 126.58544922 44.726875 126.58544922 44.046875 126.58544922 C44.09199219 127.68630859 44.13710938 128.78716797 44.18359375 129.92138672 C44.17779955 135.19410623 43.06829625 140.09861696 41.859375 145.21044922 C41.63161377 146.18320801 41.40385254 147.1559668 41.16918945 148.15820312 C33.33287664 180.7190148 14.72517565 210.36634258 -13.71875 228.78857422 C-20.20530079 232.39221355 -27.47112358 235.58544922 -34.953125 235.58544922 C-34.953125 236.24544922 -34.953125 236.90544922 -34.953125 237.58544922 C-55.20250003 238.28342582 -73.17181489 237.83882671 -89.59375 224.42919922 C-91.89496209 222.41873846 -91.89496209 222.41873846 -94.953125 221.58544922 C-94.953125 220.92544922 -94.953125 220.26544922 -94.953125 219.58544922 C-95.52804688 219.34181641 -96.10296875 219.09818359 -96.6953125 218.84716797 C-114.20471815 209.0625001 -124.3960603 181.45559906 -129.953125 163.58544922 C-130.46471712 162.11535306 -130.97644233 160.64530322 -131.48828125 159.17529297 C-140.06706896 133.40352532 -137.01457035 103.70371875 -131.953125 77.58544922 C-131.293125 77.58544922 -130.633125 77.58544922 -129.953125 77.58544922 C-129.829375 76.00763672 -129.829375 76.00763672 -129.703125 74.39794922 C-126.73493255 51.5348452 -113.04413677 31.28235582 -97.953125 14.58544922 C-97.21320313 13.76173828 -96.47328125 12.93802734 -95.7109375 12.08935547 C-88.00686757 3.94787498 -77.81395326 -4.05286584 -66.953125 -7.41455078 C-65.963125 -7.41455078 -64.973125 -7.41455078 -63.953125 -7.41455078 C-63.953125 -8.07455078 -63.953125 -8.73455078 -63.953125 -9.41455078 C-41.9932948 -15.26122507 -18.86839281 -13.66543349 0 0 Z " fill="#FEFEFE" transform="translate(213.953125,210.41455078125)"/>
<path d="M0 0 C4.9417738 1.88467039 9.55245803 4.48577532 14.18066406 7.02539062 C17.68990883 8.9052759 21.34369056 10.43301024 25 12 C25 12.66 25 13.32 25 14 C25.556875 14.2475 26.11375 14.495 26.6875 14.75 C32.34259785 17.80680965 34.98404841 21.27211956 37.88671875 26.87890625 C39.05780848 29.19989169 39.05780848 29.19989169 41 32 C41.23046875 34.59375 41.23046875 34.59375 41.1875 37.5 C41.18105469 38.4590625 41.17460937 39.418125 41.16796875 40.40625 C40.95007558 43.77092596 40.56239202 45.4869013 38.0390625 47.7890625 C37.24242187 48.39492188 36.44578125 49.00078125 35.625 49.625 C34.83351563 50.23601563 34.04203125 50.84703125 33.2265625 51.4765625 C30.03691569 53.65895242 27.53836985 54.1243856 23.76953125 54.09765625 C22.96708984 54.09443359 22.16464844 54.09121094 21.33789062 54.08789062 C20.50451172 54.07951172 19.67113281 54.07113281 18.8125 54.0625 C17.5450293 54.05573242 17.5450293 54.05573242 16.25195312 54.04882812 C14.16793845 54.03705403 12.08396023 54.0191189 10 54 C10 53.34 10 52.68 10 52 C0.5575333 49.70595169 -8.42479185 49.29774077 -18 51 C-18 51.66 -18 52.32 -18 53 C-20.77723925 53.78688445 -23.22610077 54.11949924 -26.109375 54.09765625 C-26.86347656 54.09443359 -27.61757813 54.09121094 -28.39453125 54.08789062 C-29.17183594 54.07951172 -29.94914062 54.07113281 -30.75 54.0625 C-31.54277344 54.05798828 -32.33554687 54.05347656 -33.15234375 54.04882812 C-35.10159508 54.03708565 -37.05080738 54.01915146 -39 54 C-39 53.34 -39 52.68 -39 52 C-39.721875 51.9175 -40.44375 51.835 -41.1875 51.75 C-45.83310434 50.51117218 -48.37592538 47.93611193 -51 44 C-52.2531596 36.90195097 -51.99155935 30.67927601 -48.06958008 24.56787109 C-44.58552433 19.63052334 -41.26664881 16.04911247 -36 13 C-35.34 13 -34.68 13 -34 13 C-34 12.34 -34 11.68 -34 11 C-33.48091064 10.7733667 -32.96182129 10.5467334 -32.42700195 10.31323242 C-30.05395715 9.27481025 -27.68322607 8.23120438 -25.3125 7.1875 C-24.49587891 6.83107422 -23.67925781 6.47464844 -22.83789062 6.10742188 C-19.50187609 4.63525352 -16.32517975 3.20095378 -13.21875 1.28125 C-8.91119956 -1.20620871 -4.78990458 -0.90129566 0 0 Z " fill="#FCFBFD" transform="translate(383,473)"/>
<path d="M0 0 C3.59360505 2.89806859 3.49338715 6.61149057 4 11 C4.10084045 13.67184813 4.16371049 16.31704001 4.16796875 18.98828125 C4.17296135 20.10314156 4.17296135 20.10314156 4.17805481 21.24052429 C4.18308831 22.80446764 4.18546425 24.3684216 4.18530273 25.93237305 C4.18748439 28.29559478 4.2056649 30.65834524 4.22460938 33.02148438 C4.30733882 54.14869123 4.30733882 54.14869123 -1 60 C-4.63472864 60.59008555 -6.44884029 60.30906906 -9.66796875 58.50390625 C-10.49941406 57.86324219 -11.33085937 57.22257812 -12.1875 56.5625 C-15.82744671 53.79257184 -15.82744671 53.79257184 -20 52 C-20 51.34 -20 50.68 -20 50 C-20.70898438 49.75894531 -21.41796875 49.51789063 -22.1484375 49.26953125 C-25.43702052 47.80543607 -27.84267995 45.96777608 -30.625 43.6875 C-31.56601562 42.92824219 -32.50703125 42.16898437 -33.4765625 41.38671875 C-37.79661796 37.30072202 -39.29949763 34.13102716 -39.59375 28.16015625 C-37.83719218 21.76952154 -31.41318116 17.7914159 -26.3125 14.125 C-21.54156578 10.65306105 -16.94701829 7.13681848 -12.5 3.25 C-8.12909323 -0.28800211 -5.54724127 -1.16784027 0 0 Z " fill="#FCFBFD" transform="translate(482,297)"/>
<path d="M0 0 C5.13855982 1.55563486 8.91602554 5.81404986 12.83496094 9.34863281 C15.38338278 11.56852882 18.07982018 13.54160096 20.80078125 15.546875 C31.97753906 23.83789062 31.97753906 23.83789062 33.42578125 26.734375 C33.79653664 31.18343972 33.89123502 33.7427561 31.98828125 37.796875 C25.11672679 45.6740228 15.68384349 50.97797106 7.00512695 56.66357422 C5.68734221 57.55703594 4.42002837 58.52436082 3.16796875 59.5078125 C0.53730672 61.35989294 -1.45150612 61.13301917 -4.57421875 60.734375 C-8.5571698 57.6044309 -8.88135942 53.517086 -9.57421875 48.734375 C-9.80834248 45.74618554 -9.83291148 42.7852352 -9.8046875 39.7890625 C-9.80400017 38.5678923 -9.80400017 38.5678923 -9.80329895 37.322052 C-9.80030195 35.61621628 -9.79249334 33.91038266 -9.7800293 32.20458984 C-9.76171575 29.60894979 -9.75952052 27.01366689 -9.75976562 24.41796875 C-9.75485093 22.74999695 -9.74902283 21.08202754 -9.7421875 19.4140625 C-9.74107468 18.64722137 -9.73996185 17.88038025 -9.73881531 17.09030151 C-9.63922886 5.67645225 -9.63922886 5.67645225 -7.51171875 1.796875 C-5.02716854 0.43437972 -2.83476812 -0.10364783 0 0 Z " fill="#FDFCFD" transform="translate(278.57421875,296.265625)"/>
<path d="M0 0 C3 2 3 2 3.6953125 3.93359375 C5.29169912 13.23617395 5.68796079 22.58171842 6 32 C6.04253906 33.22976563 6.08507812 34.45953125 6.12890625 35.7265625 C6.25164618 42.58363333 5.95331069 49.38044709 4 56 C2 58 2 58 -1.18359375 58.453125 C-6.14151612 57.86446687 -8.38493255 55.951072 -12.0625 52.75 C-13.23919041 51.76359946 -14.41755937 50.7791976 -15.59765625 49.796875 C-16.16371582 49.32056641 -16.72977539 48.84425781 -17.31298828 48.35351562 C-19.7576491 46.3921264 -22.3812255 44.71797688 -25 43 C-26.33333333 41.66666667 -27.66666667 40.33333333 -29 39 C-29.99 38.34 -30.98 37.68 -32 37 C-36.4475547 34.03496353 -39.07128972 32.07077643 -40.3125 26.75 C-40.54420167 23.5535701 -40.2747732 22.36529428 -38.328125 19.77734375 C-34.27369724 16.03748366 -30.04288991 13.24279408 -25.02734375 10.98828125 C-22.71711612 9.86210092 -20.68276512 8.51398132 -18.5625 7.0625 C-15.49913369 4.98851107 -12.42696932 2.9591981 -9.25 1.0625 C-8.55390625 0.64097656 -7.8578125 0.21945312 -7.140625 -0.21484375 C-4.35605382 -1.23619194 -2.8053541 -0.87327958 0 0 Z " fill="#FCFAFC" transform="translate(240,435)"/>
<path d="M0 0 C2.99451944 2.06692604 4.7413005 3.70141147 5.46832275 7.35083008 C5.663356 10.32823542 5.69276311 13.2662789 5.6640625 16.25 C5.66884613 17.34086914 5.67362976 18.43173828 5.67855835 19.55566406 C5.68195613 21.85873865 5.67276243 24.16186155 5.65185547 26.46484375 C5.6250906 29.98807417 5.65161001 33.50811856 5.68359375 37.03125 C5.68028963 39.27084036 5.67388337 41.51042874 5.6640625 43.75 C5.67418365 44.80219727 5.68430481 45.85439453 5.69473267 46.93847656 C5.57801894 54.22916905 5.57801894 54.22916905 2.6315918 58.15844727 C0 60 0 60 -2.76953125 60.71484375 C-7.69461629 59.62501236 -10.85252084 56.73346074 -14.6875 53.5625 C-15.47970947 52.92521973 -16.27191895 52.28793945 -17.08813477 51.63134766 C-18.67130926 50.35480736 -20.24947252 49.07202414 -21.82226562 47.78271484 C-23.70699531 46.23985653 -25.60503256 44.7176145 -27.515625 43.20703125 C-37.65311223 35.11601537 -37.65311223 35.11601537 -38.625 29.1875 C-38.44405677 24.57848845 -36.24238788 22.83684161 -33.03222656 19.79077148 C-29.84346809 16.9808792 -26.49677107 14.43786129 -23.0625 11.9375 C-22.39798828 11.44701172 -21.73347656 10.95652344 -21.04882812 10.45117188 C-19.71301126 9.46518096 -18.37440515 8.48295711 -17.03295898 7.50463867 C-15.62270001 6.46087429 -14.22720815 5.39697558 -12.84399414 4.31762695 C-12.1452417 3.77452881 -11.44648926 3.23143066 -10.7265625 2.671875 C-10.09959473 2.17655273 -9.47262695 1.68123047 -8.82666016 1.17089844 C-5.73548902 -0.81055796 -3.51754028 -0.73005553 0 0 Z " fill="#FCFBFC" transform="translate(62,293)"/>
<path d="M0 0 C2.69082872 0.17635452 5.32851446 0.61835921 8 1 C8 1.66 8 2.32 8 3 C9.15822266 3.28230469 9.15822266 3.28230469 10.33984375 3.5703125 C15.57578935 5.61551644 19.93239412 8.71971618 24.5625 11.875 C25.49513672 12.50019531 26.42777344 13.12539063 27.38867188 13.76953125 C39.80572992 22.14197381 39.80572992 22.14197381 40.75 26.3125 C38.93904258 35.21637396 28.69068422 40.46235343 21.77001953 45.66210938 C19.94975714 47.03797667 18.14313714 48.43010389 16.33984375 49.828125 C15.74896973 50.28598389 15.1580957 50.74384277 14.54931641 51.21557617 C13.41169922 52.09781317 12.27463367 52.98076205 11.13818359 53.86450195 C6.46440467 57.47432524 4.0378539 58.52963631 -2 58 C-4.22836195 56.29158917 -4.83877198 54.91627388 -5.32202148 52.16992188 C-9.61637753 13.34787961 -9.61637753 13.34787961 -1 1 C-0.67 0.67 -0.34 0.34 0 0 Z " fill="#FDFCFD" transform="translate(515,434)"/>
<path d="M0 0 C4.67243277 0.96993139 7.93683766 3.55309913 11.61328125 6.47998047 C12.38784668 7.07319092 13.16241211 7.66640137 13.96044922 8.27758789 C16.19838871 10.00839539 18.40607358 11.77277474 20.61328125 13.54248047 C21.74035352 14.40515499 22.86789173 15.26722145 23.99609375 16.12841797 C30.02686413 21.02519734 30.02686413 21.02519734 31.41796875 24.62451172 C31.77603589 28.36989401 30.67011239 30.961869 28.42578125 33.91748047 C23.90318652 38.59969619 18.55090922 42.3891941 13.33007812 46.24755859 C11.63760076 47.52413708 9.99024387 48.84315217 8.34765625 50.18310547 C7.3215625 51.00294922 6.29546875 51.82279297 5.23828125 52.66748047 C3.86542969 53.78509766 3.86542969 53.78509766 2.46484375 54.92529297 C-1.07784919 56.93443663 -3.37302247 56.96097013 -7.38671875 56.54248047 C-10.2436251 54.58775507 -11.20090061 53.3570842 -11.97119141 49.98022461 C-12.81833194 42.97165481 -12.69192144 35.8989556 -12.73681641 28.84741211 C-12.75343459 26.93387744 -12.78080096 25.0204063 -12.81884766 23.10717773 C-12.87360207 20.33398595 -12.89547839 17.5622335 -12.91015625 14.78857422 C-12.93282562 13.93637802 -12.955495 13.08418182 -12.97885132 12.2061615 C-12.96354646 7.90417076 -12.77569588 6.07051756 -10.15087891 2.50732422 C-6.4665372 -0.11161078 -4.39857084 -0.23540499 0 0 Z " fill="#FBF9FC" transform="translate(700.38671875,295.45751953125)"/>
<path d="M0 0 C3 1.8125 3 1.8125 6 4 C7.5778125 4.61875 7.5778125 4.61875 9.1875 5.25 C14.72043219 7.49274757 19.33051849 11.35376907 24 15 C24.88171875 15.66902344 24.88171875 15.66902344 25.78125 16.3515625 C28.37774494 18.57065992 29.41411178 20.67085839 30.0625 23.9375 C30.33740585 28.37764601 28.93295123 30.62710608 26 34 C21.66310932 38.27952441 16.70449259 41.70131251 11.68359375 45.125 C9.81007339 46.43400986 7.97078514 47.79279274 6.16015625 49.1875 C-3.17270142 56.35677338 -3.17270142 56.35677338 -9 56 C-11.16040039 54.99975586 -11.16040039 54.99975586 -13 53 C-13.39413156 50.14173108 -13.53735435 47.67415109 -13.49609375 44.81640625 C-13.49754898 44.00566147 -13.49900421 43.19491669 -13.50050354 42.35960388 C-13.49884263 40.63886943 -13.48725978 38.91812042 -13.46655273 37.19750977 C-13.43794665 34.60301002 -13.44586916 32.01060056 -13.45898438 29.41601562 C-13.43272209 7.38195585 -13.43272209 7.38195585 -8.60327148 1.21704102 C-5.80275265 -0.9088287 -3.37698558 -0.40065931 0 0 Z " fill="#FDFCFD" transform="translate(523,158)"/>
<path d="M0 0 C3.125 0.6875 3.125 0.6875 4.79980469 2.42407227 C6.34650079 5.06582237 6.48652641 6.54887537 6.453125 9.58984375 C6.44885498 10.552854 6.44458496 11.51586426 6.44018555 12.50805664 C6.41867432 13.53664795 6.39716309 14.56523926 6.375 15.625 C6.36186768 16.68517334 6.34873535 17.74534668 6.33520508 18.83764648 C6.28508781 22.12167186 6.20824096 25.40416131 6.125 28.6875 C6.10421387 29.69973633 6.08342773 30.71197266 6.06201172 31.75488281 C5.99850843 34.58760006 5.91131232 37.41831389 5.8125 40.25 C5.79026367 41.09876709 5.76802734 41.94753418 5.74511719 42.82202148 C5.51567561 47.96947083 4.98899288 53.82350712 1.125 57.6875 C-3.19914592 58.40819099 -5.60946313 58.4052102 -9.46484375 56.21875 C-12.351884 54.13113409 -15.11944241 51.945786 -17.875 49.6875 C-18.85597656 48.90890625 -19.83695313 48.1303125 -20.84765625 47.328125 C-25.43832803 43.64570188 -29.7563247 39.89692577 -33.875 35.6875 C-34.535 35.0275 -35.195 34.3675 -35.875 33.6875 C-36.29584556 29.97003088 -36.4514687 27.60270233 -34.42578125 24.38671875 C-30.88875198 20.64385929 -26.86855345 17.79850409 -22.6875 14.8125 C-21.04728484 13.62883958 -19.40795913 12.44394565 -17.76953125 11.2578125 C-16.9609668 10.67588135 -16.15240234 10.0939502 -15.31933594 9.49438477 C-12.09056994 7.10763914 -8.97749029 4.58617529 -5.87719727 2.03540039 C-3.875 0.6875 -3.875 0.6875 0 0 Z " fill="#FCFBFD" transform="translate(656.875,432.3125)"/>
<path d="M0 0 C2.87373712 1.676099 5.27093039 3.79315973 7.75 6 C9.15560697 7.20019842 10.56316593 8.3981145 11.97265625 9.59375 C12.65602051 10.17898438 13.33938477 10.76421875 14.04345703 11.3671875 C16.6688732 13.55820114 19.39335559 15.52855482 22.1875 17.5 C31.52507458 24.2359913 31.52507458 24.2359913 32.875 29.25 C30.20950203 40.67356275 13.6426404 49.59666331 4.2421875 55.828125 C1.02674644 57.50866911 -1.43619408 57.39597844 -5 57 C-7.30476456 55.54031578 -7.84620697 54.58486255 -8.53515625 51.96484375 C-10.46242349 39.67244178 -10.1194119 26.78537267 -10.25 14.375 C-10.28202515 12.74836426 -10.28202515 12.74836426 -10.31469727 11.08886719 C-10.31912842 10.07727539 -10.32355957 9.06568359 -10.328125 8.0234375 C-10.3374707 7.12544434 -10.34681641 6.22745117 -10.35644531 5.30224609 C-10 3 -10 3 -8.6796875 1.22119141 C-5.71526546 -0.93404683 -3.54696209 -0.52547586 0 0 Z " fill="#FDFCFD" transform="translate(102,433)"/>
<path d="M0 0 C1.875 1.0625 1.875 1.0625 3 3 C4.15499864 9.01561791 4.15405548 14.95183142 4.125 21.0625 C4.12161621 22.07876465 4.11823242 23.0950293 4.11474609 24.14208984 C3.95521411 47.48941004 3.95521411 47.48941004 -0.1875 53.8125 C-3.39837715 55.91617813 -5.22116675 55.65979628 -9 55 C-11.55068992 53.31927753 -13.79327102 51.42577832 -16.10546875 49.4296875 C-19.95711047 46.19659553 -24.04546042 43.3619089 -28.17797852 40.50244141 C-36.57293674 34.61989511 -36.57293674 34.61989511 -37.56640625 30.8515625 C-37.5583135 26.23869433 -37.22512672 23.02812857 -33.8359375 19.55078125 C-22.52896725 10 -22.52896725 10 -19 10 C-19 9.34 -19 8.68 -19 8 C-17.28515625 6.78125 -17.28515625 6.78125 -15.0625 5.5 C-11.94567974 3.81545121 -11.94567974 3.81545121 -10 1 C-6.44646071 -0.1845131 -3.72986522 -0.26641894 0 0 Z " fill="#FAF8FB" transform="translate(663,159)"/>
<path d="M0 0 C3.1875 0.375 3.1875 0.375 5.5 2.625 C11.30430243 12.08386323 9.31225581 26.87413227 9.375 37.5625 C9.38797119 38.76914307 9.40094238 39.97578613 9.41430664 41.21899414 C9.41551514 42.35715576 9.41672363 43.49531738 9.41796875 44.66796875 C9.42207764 45.6943042 9.42618652 46.72063965 9.43041992 47.77807617 C9.1875 50.375 9.1875 50.375 7.1875 53.375 C2.43793964 53.95506113 0.22635496 53.9721473 -3.9453125 51.57421875 C-4.93273437 50.74535156 -5.92015625 49.91648438 -6.9375 49.0625 C-8.05300238 48.14406583 -9.16890274 47.22611487 -10.28515625 46.30859375 C-10.85766113 45.8276123 -11.43016602 45.34663086 -12.02001953 44.85107422 C-13.85302244 43.34163052 -15.7248803 41.90169367 -17.62109375 40.47265625 C-18.56154541 39.75879761 -18.56154541 39.75879761 -19.52099609 39.03051758 C-20.72471308 38.11798154 -21.93189022 37.20998529 -23.14306641 36.30737305 C-26.89506995 33.41098397 -29.4971829 30.51433521 -31.8125 26.375 C-31.89512611 22.32632081 -31.20217513 20.82962099 -28.5625 17.75 C-23.32940272 13.2305069 -18.04562256 9.62300292 -12.0625 6.1875 C-10.52529069 5.29947578 -8.98879279 4.41021857 -7.453125 3.51953125 C-6.77797852 3.13128174 -6.10283203 2.74303223 -5.40722656 2.34301758 C-1.98284755 0.26437967 -1.98284755 0.26437967 0 0 Z " fill="#FBFAFC" transform="translate(234.8125,158.625)"/>
<path d="M0 0 C5.26579693 0.55429441 7.854959 2.76264013 11.87109375 6.0390625 C12.53560547 6.56113281 13.20011719 7.08320313 13.88476562 7.62109375 C15.22647499 8.67520101 16.56358255 9.73519226 17.89599609 10.80102539 C21.99611471 14.04682981 26.20016989 17.1573302 30.43359375 20.2265625 C32.48116195 23.21259946 32.80166751 25.5158484 32.63671875 29.109375 C31.2040918 33.80520779 26.90238197 35.91698298 22.93359375 38.4140625 C21.41191652 39.43363748 19.89105368 40.45442917 18.37109375 41.4765625 C17.62988281 41.95480469 16.88867188 42.43304688 16.125 42.92578125 C13.90509425 44.43341777 11.87978543 46.08501848 9.80859375 47.7890625 C6.95403898 49.94849615 5.81088107 50.43619102 2.12109375 51.1015625 C-1.06640625 50.4140625 -1.06640625 50.4140625 -2.69140625 48.5625 C-4.71651246 43.92546703 -4.90603111 39.3636898 -5.25390625 34.3515625 C-5.33286133 33.31821777 -5.41181641 32.28487305 -5.49316406 31.22021484 C-6.24072342 20.95017315 -6.8549619 11.42005631 -4.06640625 1.4140625 C-3.06640625 0.4140625 -3.06640625 0.4140625 0 0 Z " fill="#FCFBFD" transform="translate(95.06640625,160.5859375)"/>
<path d="M0 0 C0.99 0.33 1.98 0.66 3 1 C2.34 1.66 1.68 2.32 1 3 C-0.93811459 9.27037074 -1.54386377 15.47004978 -2 22 C-2.33 22 -2.66 22 -3 22 C-3.22382264 14.65115663 -2.97947087 8.10280723 -1 1 C-0.67 0.67 -0.34 0.34 0 0 Z " fill="#C9B5D8" transform="translate(92,161)"/>
<path d="M0 0 C0.66 0.33 1.32 0.66 2 1 C-0.97 3.97 -3.94 6.94 -7 10 C-7.33 9.34 -7.66 8.68 -8 8 C-5.33333333 5.33333333 -2.66666667 2.66666667 0 0 Z " fill="#ECE4F1" transform="translate(212,171)"/>
</svg>
